nColumns=19
nRows=25
DataType=double
version=3
OpenSimVersion=4.1
endheader
time	ground_force_calcn_r_vx	ground_force_calcn_r_vy	ground_force_calcn_r_vz	ground_force_calcn_r_px	ground_force_calcn_r_py	ground_force_calcn_r_pz	ground_force_calcn_r_mx	ground_force_calcn_r_my	ground_force_calcn_r_mz	ground_force_calcn_l_vx	ground_force_calcn_l_vy	ground_force_calcn_l_vz	ground_force_calcn_l_px	ground_force_calcn_l_py	ground_force_calcn_l_pz	ground_force_calcn_l_mx	ground_force_calcn_l_my	ground_force_calcn_l_mz
3.38	-5.32492	3.64659	0.322296	1.19567	0	-0.448366	3.06325e-09	-2.09776e-09	-1.85406e-10	89.659	801.372	51.1743	0.72659	0	-0.591968	-0.564224	-5.04304	-0.32204
3.385	-6.63052	5.15675	0.570537	1.20051	0	-0.448817	1.00924e-08	-7.84915e-09	-8.6842e-10	94.0959	806.944	53.0242	0.728092	0	-0.591004	-0.640384	-5.49178	-0.360864
3.39	-8.89559	7.79553	0.906102	1.20415	0	-0.449162	4.05664e-08	-3.55498e-08	-4.13208e-09	97.7071	810.588	53.3886	0.729748	0	-0.589898	-0.717973	-5.95638	-0.392311
3.395	-13.3707	12.8981	1.08534	1.20673	0	-0.449285	1.70748e-07	-1.64713e-07	-1.38601e-08	100.998	811.114	52.9091	0.731577	0	-0.588667	-0.7948	-6.38306	-0.416368
3.4	-19.8027	21.0372	0.457417	1.20834	0	-0.449251	8.93029e-07	-9.48699e-07	-2.06278e-08	104.56	808.864	52.0223	0.733517	0	-0.587344	-0.870421	-6.7335	-0.433067
3.405	-15.6331	31.7394	-1.39014	1.20887	0	-0.449185	8.86395e-06	-1.79962e-05	7.88207e-07	108.45	804.376	50.9217	0.735525	0	-0.585945	-0.933809	-6.92607	-0.438461
3.41	-2.35245	48.6558	-2.17472	1.20944	0	-0.449169	4.67169e-06	-9.66249e-05	4.31874e-06	112.59	797.197	49.1176	0.73764	0	-0.584419	-0.974044	-6.89677	-0.42493
3.415	5.71686	82.28	-0.782853	1.2101	0	-0.449139	-2.36312e-05	-0.000340112	3.236e-06	116.778	786.986	47.1183	0.739932	0	-0.582665	-0.984186	-6.6326	-0.397105
3.42	7.55073	132.289	2.6708	1.21064	0	-0.449085	-6.51199e-05	-0.0011409	-2.30338e-05	120.841	773.384	44.6937	0.742448	0	-0.580623	-0.964435	-6.17238	-0.3567
3.425	5.35109	183.845	5.37467	1.21116	0	-0.449034	-0.000110244	-0.00378762	-0.00011073	124.423	756.267	41.5214	0.745172	0	-0.578357	-0.915417	-5.56408	-0.305485
3.43	1.17609	226.171	7.54101	1.21172	0	-0.448952	-5.85045e-05	-0.0112509	-0.000375128	127.573	735.763	38.4791	0.748049	0	-0.576003	-0.845032	-4.87361	-0.254881
3.435	-3.81427	257.064	9.53507	1.21237	0	-0.448798	0.000412234	-0.0277827	-0.00103052	130.066	711.539	35.2384	0.751034	0	-0.573676	-0.762765	-4.1728	-0.206654
3.44	-10.3428	278.399	10.2354	1.21319	0	-0.448533	0.00212807	-0.0572814	-0.00210597	131.756	683.674	31.7464	0.754067	0	-0.571517	-0.681238	-3.5349	-0.164143
3.445	-18.0443	293.538	9.66054	1.21426	0	-0.448087	0.0061456	-0.0999745	-0.00329023	132.602	652.31	28.2244	0.757066	0	-0.569687	-0.607059	-2.98631	-0.129213
3.45	-25.9428	306.16	8.06076	1.21565	0	-0.447416	0.012717	-0.150078	-0.00395135	132.153	616.766	24.5278	0.759955	0	-0.568308	-0.529864	-2.47292	-0.098344
3.455	-33.4414	319.065	5.66083	1.21733	0	-0.446554	0.0202564	-0.193266	-0.00342892	130.747	575.369	20.5413	0.762806	0	-0.567441	-0.446386	-1.96438	-0.0701306
3.46	-40.0979	333.455	2.6674	1.21915	0	-0.445616	0.0256071	-0.212949	-0.00170344	129.409	528.707	16.4311	0.765718	0	-0.567183	-0.368523	-1.50562	-0.0467912
3.465	-45.8749	350.164	-0.775706	1.22113	0	-0.444612	0.0295577	-0.225615	0.000499796	127.87	478.199	12.1912	0.769009	0	-0.567317	-0.296397	-1.10844	-0.0282585
3.47	-51.5373	371.36	-4.48165	1.22381	0	-0.443233	0.0389722	-0.280821	0.003389	123.384	422.272	7.84603	0.773153	0	-0.567611	-0.222428	-0.761239	-0.0141442
3.475	-57.5203	400.515	-8.21516	1.22786	0	-0.441115	0.0586482	-0.408369	0.00837625	115.176	356.362	4.49968	0.778872	0	-0.568087	-0.146737	-0.454016	-0.00573273
3.48	-63.6572	437.982	-11.9273	1.23337	0	-0.438409	0.0855474	-0.588594	0.0160288	107.021	284.672	1.16868	0.78703	0	-0.568723	-0.0733856	-0.195203	-0.000801375
3.485	-70.3391	479.247	-15.4864	1.23977	0	-0.43568	0.120503	-0.821029	0.0265307	99.5968	225.732	-2.13479	0.796411	0	-0.57019	-0.0115845	-0.0262558	0.000248307
3.49	-77.3649	517.937	-18.7238	1.24642	0	-0.433378	0.179574	-1.2022	0.0434604	90.2243	199.3	-5.36926	0.799267	0	-0.571351	0.000293576	0.000648492	-1.74707e-05
3.495	-83.7747	550.127	-21.7153	1.25299	0	-0.431562	0.259851	-1.70637	0.0673562	81.938	183.392	-6.9558	0.799662	0	-0.571407	1.5134e-06	3.38727e-06	-1.28474e-07
3.5	-89.4742	577.226	-24.3688	1.25958	0	-0.429992	0.32718	-2.11074	0.0891094	77.8603	174.121	-8.2916	0.80021	0	-0.57148	9.7348e-08	2.17701e-07	-1.03669e-08
